HIERARCHY
ROOT hip
{
	OFFSET 0.000000 0.000000 0.000000 
	CHANNELS 6 Xposition Yposition Zposition Xrotation Zrotation Yrotation
	JOINT abdomen
	{
		OFFSET 0.000000 3.402643 0.000000 
		CHANNELS 3 Xrotation Zrotation Yrotation
		JOINT chest
		{
			OFFSET 0.000000 8.438565 -0.680529 
			CHANNELS 3 Xrotation Zrotation Yrotation
			JOINT neck
			{
				OFFSET 0.000000 10.207942 -0.272212 
				CHANNELS 3 Xrotation Zrotation Yrotation
				JOINT head
				{
					OFFSET 0.000000 3.130431 0.000000 
					CHANNELS 3 Xrotation Zrotation Yrotation
					End Site
					{
						OFFSET 0.000000 3.130435 0.000000 
					}
				}
			}
			JOINT lCollar
			{
				OFFSET 3.470700 6.669187 -0.816635 
				CHANNELS 3 Yrotation Zrotation Xrotation
				JOINT lShldr
				{
					OFFSET 3.198488 0.000000 0.000000 
					CHANNELS 3 Zrotation Yrotation Xrotation
					JOINT lForeArm
					{
						OFFSET 10.139888 0.000000 0.000000 
						CHANNELS 3 Yrotation Zrotation Xrotation
						JOINT lHand
						{
							OFFSET 8.370511 0.000000 0.000000 
							CHANNELS 3 Zrotation Yrotation Xrotation
							End Site
							{
								OFFSET 4.083176 0.000000 0.000000 
							}
						}
					}
				}
			}
			JOINT rCollar
			{
				OFFSET -3.470700 6.669187 -0.816635 
				CHANNELS 3 Yrotation Zrotation Xrotation
				JOINT rShldr
				{
					OFFSET -3.198488 0.000000 0.000000 
					CHANNELS 3 Zrotation Yrotation Xrotation
					JOINT rForeArm
					{
						OFFSET -10.139888 0.000000 0.000000 
						CHANNELS 3 Yrotation Zrotation Xrotation
						JOINT rHand
						{
							OFFSET -8.370511 0.000000 0.000000 
							CHANNELS 3 Zrotation Yrotation Xrotation
							End Site
							{
								OFFSET -4.083176 0.000000 0.000000 
							}
						}
					}
				}
			}
		}
	}
	JOINT lThigh
	{
		OFFSET 5.308129 -1.633274 1.361059 
		CHANNELS 3 Xrotation Zrotation Yrotation
		JOINT lShin
		{
			OFFSET -2.041588 -20.007561 0.000000 
			CHANNELS 3 Xrotation Zrotation Yrotation
			JOINT lFoot
			{
				OFFSET 0.000000 -19.190928 -1.224953 
				CHANNELS 3 Xrotation Yrotation Zrotation
				End Site
				{
					OFFSET 0.000000 -2.449906 4.627600 
				}
			}
		}
	}
	JOINT rThigh
	{
		OFFSET -5.308129 -1.633274 1.361059 
		CHANNELS 3 Xrotation Zrotation Yrotation
		JOINT rShin
		{
			OFFSET 2.041588 -20.007561 0.000000 
			CHANNELS 3 Xrotation Zrotation Yrotation
			JOINT rFoot
			{
				OFFSET 0.000000 -19.190928 -1.224953 
				CHANNELS 3 Xrotation Yrotation Zrotation
				End Site
				{
					OFFSET 0.000000 -2.449906 4.627600 
				}
			}
		}
	}
}
MOTION
Frames: 13
Frame Time: 0.033333
0.416629 47.811623 2.130971 10.613421 2.404727 -9.950182 0.000000 0.000000 0.000000 -10.663845 0.504396 6.650733 40.092403 -5.116910 -0.598555 -20.881176 -0.495419 5.888874 -8.477287 2.207770 24.999474 -79.156769 11.972003 -14.323482 -51.663315 -4.588055 71.188858 -12.981584 -17.308037 -58.551777 9.954535 -4.326919 24.991982 64.394028 4.487933 76.306618 9.630516 -41.528397 9.611128 27.816998 12.429921 -79.243988 -0.175815 8.496023 20.009497 23.885122 1.872577 -0.354397 -12.091329 0.627956 -21.728266 -11.986453 -10.502620 -1.642176 39.091728 -0.791023 2.372332 -10.264723 2.072621 28.040358 
0.854105 47.657299 2.401035 10.512761 2.875456 -11.987732 0.000000 0.000000 0.000000 -10.497676 0.669241 6.690021 38.591625 -4.159993 -0.509308 -21.755669 -0.280787 7.490287 -8.292295 3.227828 24.995184 -81.789505 14.130503 -13.358362 -50.567699 3.418186 61.841320 -9.616692 -20.871029 -59.288425 10.271826 -3.750755 24.998608 59.645058 6.521652 73.719032 10.638880 -39.743649 12.826693 28.670685 12.352927 -79.308411 -0.655301 8.470275 19.980715 27.407690 0.938828 -0.799985 -14.952516 2.410381 -21.857552 -13.129233 -10.825398 -1.699190 40.355347 -2.014890 2.185961 -10.799663 4.349646 27.896656 
1.528416 47.330631 2.808575 9.320151 4.110378 -15.626725 0.000000 0.000000 0.000000 -9.074656 0.232826 6.591861 36.395477 -2.714780 -0.391112 -23.531776 0.984756 8.653742 -7.738219 4.616594 24.991610 -85.002708 17.126772 -12.117152 -46.642700 15.249111 43.532585 -6.535264 -22.016951 -60.639629 11.942183 -4.047751 24.999306 54.673286 10.262982 70.718369 10.201436 -38.443981 15.715178 29.815561 11.282816 -79.603195 -2.129000 7.782213 19.704870 35.077766 0.356757 -1.314400 -18.173487 5.060460 -24.423334 -13.553025 -12.498374 -2.204416 41.456108 -3.192565 2.042122 -11.836023 8.201552 27.167376 
2.283139 46.838188 3.210448 7.565829 5.147332 -20.358927 0.000000 0.000000 0.000000 -6.643052 -0.543460 6.406516 33.897118 -0.195311 -0.185579 -25.960638 3.260741 7.786326 -7.104226 6.884507 24.994638 -87.016060 20.574677 -11.464116 -41.170361 25.745409 19.963995 -3.010150 -19.063398 -62.421337 14.534266 -5.763350 24.993259 51.084759 14.922003 68.175400 7.235568 -38.463470 12.032904 30.061069 8.283121 -80.173637 -5.322288 7.665751 19.536619 46.333527 0.314948 -1.918998 -20.577888 6.959093 -27.881170 -14.020011 -14.615208 -2.883154 42.707336 -3.954370 1.987777 -13.181346 12.851471 26.616287 
3.010188 46.235039 3.544709 6.273854 4.857884 -25.753084 0.000000 0.000000 0.000000 -3.902766 -0.941547 6.299578 31.890802 3.535151 0.098072 -28.593973 5.735952 4.289115 -6.378262 10.638098 24.991930 -86.897072 24.575403 -12.102870 -36.315231 34.087883 -1.134626 2.054577 -14.316352 -64.065613 17.355755 -8.757766 24.999537 48.617737 19.357645 66.151649 2.241061 -39.879345 -1.940349 28.050673 4.248790 -80.600616 -9.712751 9.356894 19.883539 59.330090 1.186205 -2.325969 -21.413527 6.357481 -29.768578 -15.468265 -15.165444 -3.003693 44.632702 -4.960233 1.962112 -14.431847 17.303278 27.035200 
3.682941 45.641365 3.912310 5.836568 3.104209 -31.330278 0.000000 0.000000 0.000000 -1.574626 -0.727986 6.309075 31.855404 6.699106 0.334321 -30.039629 7.538426 -0.748584 -5.212078 15.700264 24.991652 -84.450531 29.443768 -14.561751 -34.699295 41.809399 -15.525957 4.441473 -11.921904 -63.816929 20.017460 -12.118470 24.993834 45.771935 22.601826 64.245255 -2.334735 -43.301842 -17.561880 24.265018 3.830823 -80.559242 -13.550759 11.838357 20.451809 71.653358 3.694037 -2.135796 -20.306456 2.712071 -29.832764 -17.273668 -13.240813 -2.324105 46.607628 -6.981839 1.740799 -14.816998 21.099783 28.258402 
4.237226 45.018833 4.617825 6.732770 0.606175 -36.281593 0.000000 0.000000 0.000000 -1.286891 0.358968 6.552911 34.811646 5.956972 0.255576 -26.572607 7.681368 -4.523047 -1.966042 21.862333 24.989578 -77.725777 32.339455 -19.780073 -48.038101 48.667995 -7.072122 0.767430 -10.300006 -61.402405 21.814528 -18.248304 24.998356 45.684750 25.519905 63.507275 -4.581176 -50.107697 -21.495880 21.985296 3.512318 -80.751091 -15.214623 13.153865 20.755188 80.868332 6.416670 -1.747425 -15.773758 -1.884367 -37.581455 -18.178442 -10.075467 -1.278437 47.591251 -8.751030 1.413776 -14.272802 23.302845 28.448347 
4.947392 44.757088 5.219083 7.733281 -0.982623 -39.821499 0.000000 0.000000 0.000000 -1.243533 -0.029111 6.464843 38.061844 3.808590 0.078601 -21.849651 7.090969 -5.943576 0.520483 24.985455 24.288626 -66.119141 31.389944 -25.779537 -70.689873 51.463474 14.313105 -5.869857 -8.498808 -58.176456 23.138523 -24.217363 24.998457 46.495872 27.045397 63.478100 -7.104368 -57.483356 -21.482676 21.829540 2.372307 -80.945793 -15.162776 12.025861 20.318554 84.101524 6.972765 -1.621111 -12.153051 -3.508190 -41.003880 -19.264906 -9.119993 -0.932475 47.902027 -8.025840 1.620335 -11.936838 24.857620 27.878195 
5.948458 44.892765 5.525651 9.533583 -1.967243 -42.922279 0.000000 0.000000 0.000000 -1.216919 -1.223268 6.202464 40.368298 1.367185 -0.117154 -19.014179 6.244824 -5.108462 1.709962 25.218006 23.736305 -52.431030 28.184393 -29.620110 -89.849045 50.136353 33.278378 -11.836936 -7.531766 -55.307930 24.927168 -28.476400 24.999945 46.811722 26.453388 63.756374 -11.645726 -63.744686 -23.166065 22.748371 2.864244 -80.958214 -14.254242 10.814684 19.986082 81.462242 5.841320 -1.842233 -10.928533 -2.888829 -40.413857 -22.290073 -9.168223 -0.821543 48.553047 -5.429537 2.278494 -7.483577 26.809511 26.770844 
7.119185 45.242828 5.678669 12.238196 -2.979403 -46.155205 0.000000 0.000000 0.000000 -1.165118 -2.476955 5.923393 41.509377 -1.035142 -0.302861 -18.489876 5.657776 -2.708167 2.128235 24.518538 23.580936 -39.115025 24.623508 -31.367592 -99.683182 46.379608 44.514359 -15.118982 -7.337274 -53.486546 27.482204 -30.000000 25.000000 47.876305 24.624002 64.637184 -17.846277 -67.840034 -27.770102 23.003466 4.936344 -80.848267 -12.800433 10.991896 20.217274 75.961884 3.976764 -2.162049 -12.752596 -0.969544 -38.506580 -26.686260 -8.915119 -0.534127 49.431358 -2.909961 2.908111 -0.639353 30.090754 24.962532 
8.308889 45.621315 5.936298 15.019562 -4.379331 -48.942417 0.000000 0.000000 0.000000 -0.806883 -3.712355 5.656044 41.803413 -3.183487 -0.469654 -19.092716 5.185514 0.206004 1.841508 24.388994 23.715471 -27.752312 20.610359 -31.584177 -101.955742 41.148647 49.077469 -16.426291 -6.599509 -53.045059 30.256140 -30.000000 25.000000 50.768486 22.375971 66.363220 -22.260706 -69.978294 -31.992476 22.144703 6.839201 -80.752037 -11.121134 11.987545 20.725403 71.160187 2.209540 -2.468986 -16.803633 1.226165 -35.457973 -30.432652 -8.650549 -0.272446 49.753929 -2.070258 3.108987 8.943085 34.045273 21.577084 
9.471188 46.035530 6.319886 17.764240 -6.429003 -50.137623 0.000000 0.000000 0.000000 0.145778 -4.637406 5.427921 41.992809 -4.823966 -0.588789 -19.692627 3.463917 2.338568 0.170321 24.568766 24.451479 -18.461205 15.302073 -30.988306 -98.839737 35.458828 47.811855 -17.246353 -4.548642 -53.898872 32.573185 -30.000000 25.000000 55.116806 19.339493 68.876549 -24.322876 -71.069221 -34.441406 21.531404 6.487149 -80.762520 -10.886123 13.351827 21.253321 69.580170 1.848507 -2.502814 -19.092121 1.526204 -31.531288 -32.621330 -8.367898 -0.076186 49.208099 -3.710893 2.710884 20.482677 34.193108 18.291946 
10.616449 46.428658 6.746291 20.555370 -8.685959 -47.089180 0.000000 0.000000 0.000000 1.901275 -5.222047 5.275591 42.722134 -4.599376 -0.578232 -20.164482 0.712801 0.908376 -5.143287 26.216545 24.988111 -13.651147 5.835615 -29.889971 -92.883308 33.127079 45.369953 -20.479271 -2.722714 -54.893436 31.645657 -30.000000 24.995054 58.749523 12.035178 72.064209 -28.667244 -72.328117 -39.836567 20.327141 8.298127 -80.702988 -16.394394 15.220259 21.386015 72.737991 4.621988 -1.939608 -13.900987 3.200804 -34.788551 -34.986595 -11.454052 -0.914798 54.813568 -3.613203 3.289345 17.751123 23.173641 18.272421 
